<svg width="975" height="975" viewBox="0 0 975 975" fill="none" xmlns="http://www.w3.org/2000/svg">
<circle cx="487.5" cy="487.5" r="487.5" fill="#1755EB"/>
<path d="M301.977 805.246C305.602 807.445 308.78 809.957 311.511 812.783C314.22 815.643 316.38 818.754 317.99 822.116C319.565 825.458 320.447 828.94 320.636 832.563C320.769 836.2 320.021 839.863 318.391 843.552L308.439 837.516C309.524 834.338 309.741 831.242 309.09 828.227C308.405 825.192 307.002 822.376 304.881 819.779C302.726 817.162 300.024 814.868 296.775 812.897C293.628 810.989 290.438 809.732 287.203 809.127C283.933 808.5 280.925 808.64 278.176 809.546C275.407 810.486 273.213 812.29 271.595 814.958C269.811 817.899 269.338 820.84 270.174 823.78C270.99 826.754 273.067 830.002 276.404 833.524L289.296 846.747C292.232 849.697 294.567 852.75 296.301 855.908C297.98 859.078 298.804 862.385 298.774 865.829C298.723 869.307 297.546 872.944 295.244 876.74C292.692 880.946 289.31 883.901 285.096 885.602C280.862 887.338 276.243 887.858 271.238 887.162C266.179 886.479 261.136 884.613 256.108 881.563C250.294 878.037 246.015 874.061 243.272 869.637C240.494 865.192 239.075 860.706 239.015 856.178C238.954 851.65 240.054 847.522 242.316 843.794L252.063 849.706C250.317 853.279 249.691 856.548 250.184 859.514C250.657 862.514 251.882 865.199 253.86 867.568C255.817 869.972 258.267 872.065 261.208 873.849C266.509 877.065 271.264 878.288 275.473 877.52C279.627 876.764 282.71 874.728 284.722 871.41C286.568 868.367 287.046 865.381 286.154 862.455C285.263 859.528 283.209 856.435 279.994 853.174L267.45 840.303C263.661 836.601 261.058 832.987 259.641 829.461C258.19 825.914 257.688 822.499 258.136 819.215C258.529 815.945 259.638 812.805 261.464 809.795C263.953 805.691 267.319 802.727 271.56 800.902C275.801 799.077 280.551 798.496 285.81 799.159C291.013 799.836 296.402 801.865 301.977 805.246ZM256.753 777.491L195.66 839.094L188.119 831.616L203.06 751.452L155.571 799.337L147.69 791.521L208.783 729.918L215.812 736.889L200.707 818.242L248.872 769.675L256.753 777.491ZM176.124 682.67C180.129 689.27 182.108 695.883 182.059 702.51C182.01 709.137 179.964 715.48 175.919 721.537C171.82 727.581 165.753 733.041 157.717 737.918C149.613 742.837 141.923 745.702 134.649 746.514C127.34 747.347 120.718 746.266 114.783 743.27C108.827 740.241 103.867 735.461 99.9031 728.929C95.9184 722.364 93.978 715.774 94.0817 709.161C94.1512 702.568 96.2526 696.239 100.386 690.175C104.485 684.131 110.604 678.639 118.742 673.7C126.778 668.823 134.423 665.961 141.676 665.115C148.875 664.255 155.415 665.316 161.295 668.298C167.176 671.28 172.118 676.071 176.124 682.67ZM167.866 687.682C165.085 683.1 161.676 679.835 157.639 677.886C153.603 675.938 148.887 675.454 143.493 676.435C138.079 677.382 131.969 679.92 125.164 684.05C118.257 688.242 113.099 692.542 109.692 696.95C106.284 701.357 104.495 705.812 104.326 710.313C104.123 714.835 105.401 719.37 108.161 723.917C110.901 728.431 114.333 731.659 118.459 733.6C122.585 735.541 127.4 736.034 132.904 735.08C138.407 734.126 144.596 731.564 151.469 727.392C158.274 723.262 163.336 718.997 166.654 714.597C169.973 710.196 171.689 705.739 171.803 701.225C171.918 696.71 170.605 692.196 167.866 687.682ZM143.831 620.375L66.9093 667.666L63.9116 656.854L125.331 619.901L53.5559 619.503L51.2315 611.119L112.571 573.877L40.7956 573.479L37.814 562.725L128.185 563.944L130.926 573.831L71.1929 610.13L141.17 610.778L143.831 620.375ZM117.018 486.837L30.67 478.395L33.9391 444.955C34.5462 438.744 36.0096 433.642 38.3291 429.649C40.6088 425.652 43.6214 422.791 47.3669 421.068C51.0726 419.34 55.3738 418.716 60.2704 419.194C64.968 419.654 68.7877 420.871 71.7294 422.847C74.6751 424.782 76.9788 427.118 78.6406 429.852C80.2626 432.583 81.4569 435.372 82.2234 438.22L123.055 425.091L121.91 436.795L83.1665 448.923L80.8957 472.152L118.098 475.789L117.018 486.837ZM71.7592 471.259L73.5981 452.449C74.2325 445.96 73.4091 440.815 71.128 437.015C68.8071 433.211 65.0391 431.055 59.8239 430.545C54.7282 430.047 50.7707 431.267 47.9513 434.207C45.096 437.103 43.3998 441.298 42.8627 446.792L40.767 468.229L71.7592 471.259ZM126.683 402.95L44.2775 375.808L61.3962 323.834L70.6665 326.951L57.0579 368.267L83.9564 377.127L96.2136 339.914L105.446 342.955L93.1697 380.225L120.638 389.272L134.755 346.797L144.158 349.894L126.683 402.95ZM152.215 330.186L79.1656 283.377L87.4526 270.444L161.885 287.07L115.875 226.089L124.129 213.207L197.179 260.016L190.996 269.665L131.94 231.823L177.432 290.832L171.832 299.572L99.8654 283.102L158.366 320.588L152.215 330.186ZM236.418 219.429C230.707 224.624 224.595 227.832 218.082 229.053C211.568 230.274 204.951 229.48 198.232 226.671C191.515 223.805 184.993 218.895 178.668 211.942C172.288 204.929 168.004 197.931 165.814 190.947C163.597 183.933 163.39 177.226 165.193 170.827C167.026 164.401 170.768 158.618 176.42 153.476C182.101 148.308 188.197 145.142 194.708 143.977C201.192 142.783 207.806 143.634 214.55 146.529C221.267 149.395 227.828 154.349 234.235 161.391C240.56 168.345 244.833 175.3 247.052 182.257C249.274 189.158 249.485 195.78 247.685 202.123C245.884 208.465 242.129 214.234 236.418 219.429ZM229.918 212.283C233.882 208.676 236.434 204.705 237.574 200.37C238.713 196.035 238.285 191.315 236.29 186.208C234.324 181.075 230.662 175.565 225.306 169.676C219.869 163.7 214.661 159.461 209.682 156.96C204.703 154.46 199.989 153.557 195.539 154.253C191.062 154.919 186.856 157.042 182.92 160.622C179.015 164.175 176.504 168.162 175.389 172.583C174.274 177.005 174.712 181.825 176.702 187.044C178.692 192.263 182.392 197.847 187.803 203.794C193.159 209.682 198.315 213.833 203.269 216.248C208.223 218.662 212.927 219.493 217.38 218.741C221.833 217.989 226.012 215.836 229.918 212.283ZM297.958 170.208L227.895 110.431L237.411 104.953L297.444 155.965L283.483 78.4327L292.999 72.9549L309.554 163.533L297.958 170.208ZM334.377 149.309L338.188 57.1274L350.147 53.3529L406.185 126.645L395.371 130.058L380.095 109.964L346.165 120.673L345.134 145.914L334.377 149.309ZM345.898 110.061L374.107 101.158L347.407 65.6056L345.898 110.061ZM425.386 122.107L417.865 35.6737L429.162 34.683L435.872 111.189L476.695 107.609L477.566 117.531L425.386 122.107ZM564.38 127.843C560.247 126.9 556.439 125.518 552.956 123.697C549.483 121.838 546.453 119.566 543.865 116.883C541.316 114.209 539.381 111.183 538.06 107.804C536.786 104.395 536.341 100.683 536.724 96.6674L548.072 99.2576C548.044 102.616 548.815 105.622 550.383 108.278C551.99 110.942 554.21 113.172 557.041 114.967C559.912 116.771 563.2 118.096 566.904 118.942C570.492 119.761 573.916 119.947 577.177 119.502C580.477 119.065 583.288 117.984 585.611 116.257C587.942 114.492 589.455 112.088 590.149 109.046C590.915 105.692 590.437 102.752 588.716 100.226C587.004 97.6607 584.009 95.2334 579.731 92.9441L563.327 84.4612C559.611 82.5873 556.432 80.4258 553.791 77.9766C551.198 75.4974 549.373 72.619 548.315 69.3416C547.267 66.0252 547.237 62.2026 548.225 57.874C549.32 53.0773 551.598 49.2073 555.06 46.2638C558.531 43.2813 562.75 41.3314 567.719 40.4141C572.736 39.4666 578.11 39.6471 583.843 40.9556C590.472 42.4688 595.786 44.892 599.785 48.2253C603.822 51.5676 606.584 55.3776 608.069 59.6554C609.554 63.9332 609.812 68.1974 608.842 72.4481L597.728 69.9113C598.258 65.9705 597.821 62.6706 596.418 60.0116C595.023 57.3136 593.014 55.1523 590.389 53.5276C587.774 51.8639 584.789 50.6493 581.436 49.8838C575.391 48.5042 570.493 48.8427 566.741 50.8994C563.037 52.926 560.754 55.8307 559.89 59.6134C559.098 63.0842 559.587 66.0676 561.355 68.5638C563.124 71.06 566.049 73.3481 570.128 75.428L586.09 83.6871C590.854 86.0053 594.464 88.614 596.92 91.5133C599.416 94.4215 600.969 97.5044 601.579 100.762C602.237 103.989 602.175 107.319 601.392 110.751C600.324 115.43 598.065 119.305 594.615 122.374C591.166 125.443 586.841 127.493 581.642 128.521C576.491 129.52 570.737 129.294 564.38 127.843ZM616.75 140.058L654.052 61.7266L703.456 85.2528L699.197 94.057L659.923 75.3546L647.747 100.924L683.121 117.769L678.942 126.544L643.514 109.674L631.08 135.784L671.44 155.137L667.184 164.075L616.75 140.058ZM687.166 175.195L740.415 106.698L766.942 127.32C771.869 131.15 775.401 135.112 777.538 139.205C779.7 143.267 780.51 147.342 779.967 151.429C779.449 155.485 777.68 159.455 774.66 163.339C771.763 167.066 768.694 169.645 765.453 171.077C762.243 172.534 759.039 173.234 755.839 173.179C752.664 173.092 749.668 172.612 746.851 171.739L736.147 213.272L726.862 206.055L737.299 166.821L718.872 152.496L695.93 182.008L687.166 175.195ZM724.506 145.249L739.427 156.849C744.575 160.85 749.364 162.901 753.795 163.002C758.251 163.071 762.086 161.037 765.302 156.9C768.445 152.858 769.526 148.86 768.546 144.907C767.623 140.946 764.982 137.272 760.624 133.884L743.618 120.664L724.506 145.249ZM764.338 243.214L811.705 164.23L818.681 172.709L778.299 240.351L852.456 213.761L859.432 222.24L772.839 253.546L764.338 243.214ZM804.01 293.502L879.365 250.502L884.866 260.143L809.512 303.143L804.01 293.502ZM832.143 358.929C829.499 351.591 828.916 344.721 830.394 338.322C831.886 331.959 835.279 326.272 840.574 321.261C845.883 316.287 852.977 312.201 861.859 309.001C870.702 305.815 878.717 304.458 885.902 304.93C893.088 305.403 899.227 307.634 904.321 311.624C909.466 315.637 913.367 321.332 916.025 328.708C918.099 334.466 918.732 339.999 917.923 345.307C917.152 350.602 915.261 355.322 912.248 359.469C909.235 363.616 905.427 366.795 900.824 369.006L896.818 357.885C899.799 356.131 902.283 353.939 904.27 351.31C906.256 348.681 907.526 345.715 908.08 342.412C908.633 339.109 908.218 335.538 906.835 331.7C905.059 326.77 902.387 323.013 898.82 320.429C895.304 317.87 890.82 316.573 885.365 316.54C879.925 316.544 873.441 317.902 865.915 320.614C854.55 324.708 846.894 329.656 842.947 335.457C839.05 341.283 838.445 347.921 841.129 355.372C842.512 359.211 844.507 362.212 847.115 364.376C849.723 366.54 852.687 367.981 856.007 368.698C859.326 369.416 862.675 369.506 866.053 368.969L870.06 380.089C866.448 380.923 862.76 381.189 858.995 380.887C855.281 380.609 851.709 379.664 848.279 378.051C844.85 376.438 841.737 374.052 838.94 370.893C836.158 367.771 833.892 363.783 832.143 358.929ZM850.134 409.634L936.241 399.005L942.944 453.313L933.231 454.452L927.901 411.279L899.795 414.749L904.595 453.634L894.948 454.825L890.141 415.88L861.439 419.423L866.803 463.861L856.978 465.074L850.134 409.634ZM854.937 517.476C855.266 513.249 856.077 509.28 857.369 505.569C858.7 501.861 860.504 498.531 862.78 495.579C865.053 492.666 867.764 490.31 870.914 488.509C874.1 486.751 877.707 485.768 881.735 485.56L880.832 497.165C877.506 497.628 874.644 498.829 872.246 500.769C869.845 502.749 867.964 505.27 866.602 508.334C865.237 511.437 864.407 514.883 864.112 518.672C863.826 522.341 864.142 525.755 865.059 528.916C865.974 532.117 867.454 534.74 869.502 536.785C871.589 538.833 874.188 539.978 877.299 540.22C880.728 540.487 883.567 539.585 885.815 537.513C888.102 535.445 890.066 532.127 891.705 527.561L897.699 510.093C899.01 506.143 900.683 502.682 902.72 499.712C904.794 496.784 907.374 494.557 910.462 493.032C913.589 491.511 917.367 490.922 921.793 491.267C926.698 491.649 930.86 493.337 934.278 496.331C937.735 499.329 940.281 503.218 941.915 507.999C943.586 512.823 944.193 518.167 943.736 524.029C943.208 530.808 941.588 536.42 938.875 540.862C936.159 545.345 932.793 548.634 928.778 550.728C924.764 552.823 920.583 553.701 916.236 553.363L917.121 541.997C921.097 541.946 924.298 541.031 926.723 539.254C929.188 537.48 931.032 535.176 932.256 532.343C933.52 529.512 934.285 526.382 934.552 522.953C935.033 516.771 933.982 511.975 931.399 508.565C928.853 505.197 925.646 503.362 921.778 503.061C918.228 502.785 915.348 503.704 913.137 505.819C910.927 507.933 909.091 511.161 907.629 515.5L901.792 532.498C900.195 537.55 898.142 541.502 895.633 544.356C893.121 547.25 890.298 549.237 887.165 550.317C884.068 551.44 880.765 551.865 877.256 551.591C872.47 551.219 868.307 549.551 864.767 546.587C861.226 543.623 858.567 539.645 856.789 534.651C855.048 529.701 854.431 523.976 854.937 517.476Z" fill="white"/>
<circle cx="487.648" cy="487.645" r="345" fill="white"/>
<circle cx="487.648" cy="487.645" r="342.5" stroke="white" stroke-width="5"/>
<path d="M431.037 252.395C431.736 256.063 433.133 260.604 434.007 262.526C435.753 265.67 436.103 265.67 438.548 260.604C440.819 255.714 440.819 254.665 438.024 250.473C436.277 248.028 433.832 245.932 432.435 245.932C430.338 245.932 429.989 247.329 431.037 252.395Z" fill="#1D205D"/>
<path d="M483.96 253.967C479.07 255.539 480.292 257.984 486.58 258.857C505.62 261.827 514.004 260.954 509.463 256.412C507.192 254.141 488.851 252.569 483.96 253.967Z" fill="#1D205D"/>
<path d="M488.851 267.766C485.707 270.036 485.707 270.386 488.502 271.434C492.17 272.831 500.554 269.338 499.157 266.892C497.585 264.447 492.694 264.796 488.851 267.766Z" fill="#1D205D"/>
<path d="M451.123 144.796C444.136 147.591 435.752 154.752 430.337 162.787C424.922 170.648 417.935 187.067 417.935 192.133C417.935 193.705 416.538 196.15 414.791 197.373C408.677 201.74 405.882 208.377 404.834 221.478C403.786 232.657 404.31 235.626 407.28 241.565C412.52 251.347 411.996 255.714 405.533 259.207C400.817 261.478 398.022 261.653 385.97 260.081C367.804 257.635 328.153 257.635 316.275 260.081C303 262.876 257.41 286.457 217.06 311.435C191.505 327.161 168.783 351.982 159.243 380.431C145.444 421.654 140.902 454.842 142.475 504.275C143.523 542.179 148.239 568.904 159.767 604.013C191.034 697.988 265.445 775.892 361.166 814.495C390.86 826.547 439.07 836.329 468.066 836.329H479.071V844.713V853.273L465.097 852.399C453.918 851.7 449.551 852.224 444.136 854.67C437.673 857.639 433.83 862.006 439.594 859.735C444.136 857.989 464.049 864.277 470.512 869.342C476.625 874.408 476.625 874.408 480.992 871.089C488.503 865.15 503.7 856.941 511.036 854.67C525.534 850.478 541.604 857.814 547.368 871.613C548.765 874.932 550.338 876.329 552.259 875.805C553.831 875.281 560.119 873.709 566.233 872.312C572.172 870.915 577.587 869.342 578.111 868.993C578.46 868.469 572.346 863.578 564.311 857.989C535.316 837.901 518.198 818.163 504.922 789.691C492.695 763.665 493.918 742.529 508.241 735.368C515.403 731.7 638.722 690.826 675.055 679.822C694.618 674.057 702.304 673.009 698.636 676.677C698.112 677.376 656.889 691.525 607.281 708.119C547.019 728.381 515.577 739.735 512.957 742.18C507.018 747.77 505.097 756.329 507.368 767.158C511.385 786.198 524.136 808.032 541.429 825.15C549.814 833.709 580.381 855.543 583.7 855.543C584.399 855.543 587.368 852.05 590.512 847.858C600.644 833.36 617.587 826.198 630.862 830.74C636.277 832.661 636.452 832.486 640.469 824.277C648.679 808.207 663.177 799.298 681.168 799.298H691.998L694.793 789.691C699.858 772.399 718.374 757.726 735.492 757.726C742.653 757.726 742.828 757.551 742.828 751.962C742.828 744.451 749.291 731.874 755.579 727.333C759.073 724.713 762.915 723.839 769.728 724.014L778.985 724.189L780.033 712.311C782.13 686.459 797.151 669.69 813.92 674.232C821.78 676.328 824.925 681.568 824.925 692.573C824.925 697.638 825.449 701.83 825.973 701.83C826.671 701.83 831.038 698.162 835.754 693.795C849.903 680.52 863.353 676.328 873.659 681.743C879.772 684.887 880.82 687.333 880.82 699.56C880.82 709.167 880.82 709.167 884.663 706.721C890.427 702.878 895.143 693.097 893.921 686.983C891.825 675.455 873.309 663.577 860.733 665.673C857.239 666.197 850.078 668.642 844.837 671.088L835.056 675.629L829.466 669.516C822.828 662.529 816.89 659.909 807.457 659.909C798.199 659.909 793.134 662.18 784.75 669.69C776.016 677.725 772.697 683.664 769.029 698.337C766.409 708.468 765.71 709.691 760.994 710.739C752.784 712.311 745.273 717.027 739.684 723.839C733.57 731.176 731.299 730.652 721.867 719.996C713.483 710.389 711.387 703.577 710.863 685.236C710.513 670.564 709.989 668.468 706.321 664.45C703.876 662.005 700.382 659.909 698.286 659.909C694.443 659.909 617.936 682.791 573.394 697.114L549.814 704.8L548.416 700.258C547.717 697.813 544.923 685.935 541.953 673.883L536.888 652.048L543.525 645.061C560.643 627.419 581.953 583.576 588.416 553.358C592.609 533.445 591.735 432.833 587.019 402.265C582.827 374.317 572.696 357.374 541.953 325.933L521.866 305.321L525.01 299.033C526.757 295.54 529.551 287.504 531.123 281.216C532.87 274.753 535.49 267.592 537.062 265.146C538.634 262.701 540.381 257.985 541.08 254.666C541.779 251.347 543.525 246.98 544.748 245.059C547.717 240.867 547.892 225.146 545.272 212.395C543.7 205.408 541.604 201.565 536.888 197.024C533.22 193.705 526.757 186.194 522.39 180.255C511.909 166.456 494.093 150.211 485.184 146.193C477.499 142.7 458.459 141.827 451.123 144.796ZM481.865 159.643C488.154 162.613 505.272 180.255 505.272 183.574C505.272 185.146 497.411 185.67 477.673 185.844C462.651 186.019 446.756 187.067 442.389 187.941C438.197 188.989 434.354 189.513 434.005 189.163C432.782 187.94 440.817 171.696 444.66 167.504C454.442 156.849 469.289 153.704 481.865 159.643ZM463.35 210.823V224.622L457.062 225.321C449.201 226.194 447.804 223.749 447.105 208.901L446.756 197.897L453.743 197.024C457.586 196.5 461.254 196.325 462.127 196.674C462.826 197.024 463.35 203.312 463.35 210.823ZM489.202 209.076C489.551 216.238 489.376 222.875 489.027 223.923C488.503 225.321 485.01 225.67 478.896 224.971C468.59 223.923 468.94 224.447 466.145 203.487L465.097 195.102L476.975 195.626L488.678 196.15L489.202 209.076ZM512.957 198.77C513.656 199.644 514.879 206.98 515.228 215.364L516.276 230.386L512.084 229.513C509.813 228.989 505.097 228.29 501.604 227.591L495.315 226.718L494.093 215.364C493.394 209.076 492.171 202.089 491.298 199.644L489.726 195.277L500.556 196.325C506.494 197.024 512.084 198.072 512.957 198.77ZM443.263 212.569V226.369L437.498 227.067C434.354 227.417 431.385 227.242 431.035 226.718C430.686 226.019 429.813 220.43 429.114 214.142L428.066 202.788L434.704 200.866C438.546 199.993 441.865 199.12 442.389 198.945C442.913 198.77 443.263 205.059 443.263 212.569ZM523.612 201.216C526.757 202.613 530.599 205.583 532.171 207.853C534.966 212.22 538.11 235.452 535.84 235.452C535.141 235.452 531.473 234.578 527.805 233.356C521.342 231.434 520.992 231.085 520.992 224.273C520.992 220.255 519.944 212.919 518.547 207.853C517.324 202.788 516.626 198.77 516.975 198.77C517.324 198.77 520.294 199.818 523.612 201.216ZM424.747 208.727C423.699 211.521 423.35 217.286 423.874 221.653C424.922 228.989 424.573 229.862 420.555 231.609L416.188 233.705V223.399C416.188 215.714 417.062 212.045 419.856 208.552C424.573 202.613 427.018 202.788 424.747 208.727ZM497.411 238.072C517.499 241.216 531.473 245.408 531.473 248.203C531.298 255.365 529.202 258.159 523.612 258.159C516.276 258.159 515.053 261.303 516.626 276.5C518.023 289.077 516.276 293.094 509.813 293.094C507.717 293.094 504.224 291.871 502.128 290.299C498.285 287.679 497.935 287.679 497.062 290.998C496.363 293.967 495.141 294.317 490.424 293.618C483.787 292.57 478.023 295.19 476.451 300.081C475.053 304.448 471.036 304.448 463.874 300.081C459.507 297.461 457.586 294.491 455.664 287.505C454.267 282.439 452.87 275.801 452.52 273.007C451.822 266.02 449.551 266.544 443.787 274.928C432.433 291.347 434.005 310.911 447.629 324.535C451.472 328.378 454.616 331.872 454.616 332.396C454.616 332.745 451.472 333.968 447.455 335.016C441.691 336.588 439.594 336.413 436.276 334.317C430.511 330.474 424.573 313.706 424.223 299.906C424.048 290.299 424.747 287.505 428.59 281.566L433.306 274.579L426.319 267.068C420.031 260.255 419.332 258.858 420.206 252.744C422.127 238.421 429.638 236.849 441.691 248.028C451.123 256.587 453.219 256.063 459.682 243.661C463.874 235.452 464.049 235.452 472.782 235.452C477.673 235.452 488.852 236.674 497.411 238.072ZM413.219 288.203C412.171 311.609 413.568 322.09 420.73 345.496L425.271 360.343L417.411 372.047C399.944 398.073 379.507 467.768 379.507 501.305C379.507 506.021 378.808 509.689 378.109 509.689C375.489 509.689 350.686 492.047 343.349 484.711C331.122 473.008 334.79 481.043 347.716 494.318C356.624 503.576 373.393 517.724 377.236 519.122C377.236 519.296 375.489 525.061 373.218 532.048C370.773 539.035 368.502 550.912 367.804 558.598L366.756 572.397L355.227 563.314C348.939 558.423 337.061 548.642 328.851 541.655L314.004 529.078L313.829 506.72C313.829 494.493 312.432 467.768 310.685 447.68C307.541 410.125 307.716 390.387 311.559 331.697C312.432 317.024 312.781 304.448 312.432 303.924C308.939 300.605 299.157 341.304 299.157 358.771C299.157 363.837 298.283 368.553 297.061 369.601C293.742 372.047 277.672 375.191 268.065 375.191C260.554 375.016 259.506 374.492 255.139 368.204C250.598 361.566 236.449 349.863 235.052 351.435C233.829 352.483 237.846 359.295 245.357 369.252C250.947 376.763 252.519 380.78 254.615 392.833C258.633 415.191 258.807 414.667 248.501 413.968C233.654 412.92 216.711 420.606 210.073 431.436L206.754 437.025L205.008 432.309C196.449 409.776 191.733 366.457 196.099 350.736C198.021 343.4 206.929 333.968 219.331 325.758C241.864 310.911 299.331 280.518 312.956 276.325C324.834 272.832 350.162 271.609 369.725 273.705C379.157 274.579 387.192 275.801 387.542 276.151C387.891 276.5 386.319 281.042 384.048 286.282C378.633 297.985 373.917 316.151 374.616 322.265C375.14 326.282 376.537 327.155 385.62 329.776C391.385 331.348 399.944 335.19 404.485 338.335L412.869 343.924L411.647 339.033C409.725 330.824 404.31 325.059 395.053 320.692C386.494 316.675 386.319 316.675 387.367 309.688C388.764 299.382 399.594 278.596 406.581 272.308C410.075 269.338 413.219 266.893 413.568 266.893C413.917 266.893 413.743 276.5 413.219 288.203ZM505.272 308.815C509.289 311.26 505.446 313.531 494.617 314.754C487.106 315.802 484.486 315.452 482.739 313.356C481.516 311.959 480.992 309.863 481.691 308.815C483.088 306.544 501.778 306.544 505.272 308.815ZM537.586 342.003C557.499 362.44 567.281 377.636 571.473 395.103C574.093 406.108 576.713 458.335 576.888 502.877C576.888 531.349 576.364 539.384 573.394 550.912C567.281 575.192 555.228 602.266 540.731 624.45C531.822 638.075 530.774 638.599 526.233 630.389C519.246 618.162 504.922 611 491.822 613.62L485.184 615.018L494.267 617.114C499.158 618.162 505.272 620.432 507.717 622.005C516.975 628.118 525.359 650.302 520.119 654.669C518.198 656.241 516.626 655.367 512.433 650.651C504.748 641.917 491.123 636.502 479.769 637.725L470.861 638.599L474.704 626.197C476.8 619.21 484.136 600.694 490.774 584.799C497.586 568.904 503.874 553.183 505.097 549.69C508.241 540.257 517.15 535.89 534.093 535.89C548.94 535.89 550.687 533.969 540.032 528.379C534.093 525.235 518.896 524.886 512.084 527.855C509.639 528.904 508.94 527.157 507.892 515.803C505.446 489.951 510.163 466.72 522.739 441.567C530.599 425.671 535.84 412.221 534.442 410.824C533.394 409.601 519.595 427.418 513.307 438.423C510.687 442.964 504.224 457.113 498.983 469.864C487.804 497.288 479.595 509.864 469.114 515.978C458.11 522.615 458.983 524.187 473.831 524.362C481.516 524.537 482.04 527.331 479.071 547.768C477.499 558.423 475.752 563.664 472.782 567.157C465.097 576.415 440.118 584.624 419.856 584.799C405.009 584.799 407.629 587.419 425.97 591.087C435.228 592.834 444.136 593.533 453.394 592.834C467.717 591.611 469.289 592.659 465.097 600.52C463.175 604.188 448.503 610.127 436.8 611.873C421.952 614.144 415.839 611.874 396.45 596.677C386.668 588.991 378.109 581.48 377.411 579.734C375.664 575.367 375.839 562.091 377.76 550.563C379.856 539.209 384.398 525.41 386.144 525.41C386.843 525.41 393.306 527.681 400.468 530.476C414.965 536.065 430.162 539.035 430.162 536.24C430.162 535.366 428.066 533.969 425.446 533.27C422.651 532.746 413.219 528.554 404.485 524.362L388.24 516.676V509.165C388.24 501.829 389.463 493.095 393.655 470.388C396.799 453.794 407.28 417.811 413.743 401.741C423.35 377.985 427.193 372.745 439.594 365.758C445.533 362.439 455.14 356.151 460.73 351.61C467.018 346.719 472.084 344.099 473.831 344.623C475.228 345.321 480.468 346.544 485.184 347.592C490.075 348.815 494.093 349.688 494.267 349.863C495.315 350.387 488.852 364.71 487.63 364.71C486.931 364.71 483.438 362.964 479.944 361.042C471.909 356.326 463.001 357.199 451.647 364.186L443.263 369.077L459.158 369.95C473.306 370.649 475.577 371.348 480.643 375.715C483.962 378.335 487.804 380.431 489.202 380.082C495.315 378.859 504.748 358.247 511.56 330.998L514.529 319.12L520.468 324.885C523.787 328.029 531.473 335.714 537.586 342.003ZM186.667 413.095C188.239 419.558 191.383 429.689 193.479 435.453C195.575 441.217 199.069 451.523 201.165 458.335C203.261 465.672 206.58 472.309 209.2 474.755C215.139 480.344 214.789 485.06 208.327 487.331C201.514 489.602 197.322 497.462 199.418 503.226C200.292 505.497 203.785 508.991 207.104 510.912C210.772 513.183 213.567 516.502 214.265 519.471C216.012 526.283 219.855 530.126 227.366 532.572C230.859 533.794 235.401 536.589 237.497 538.685C239.768 541.131 243.436 542.877 246.056 542.877C248.676 542.877 252.344 544.275 254.266 545.847C256.536 547.943 260.729 548.991 267.192 549.166C275.227 549.166 277.847 550.214 284.834 555.629L293.043 561.742L292.869 579.035C292.694 593.707 291.821 597.725 287.803 606.633C280.467 622.703 271.209 649.079 260.729 682.966C255.488 700.084 250.598 714.058 249.899 714.058C247.628 714.058 227.191 688.555 215.139 670.564C189.112 631.961 173.741 590.913 164.309 535.89C161.165 516.676 161.689 462.178 165.182 440.693C167.802 425.322 176.711 389.689 179.855 382.178C180.379 380.78 181.601 384.448 182.3 390.387C182.999 396.152 184.92 406.457 186.667 413.095ZM296.537 411.348C296.537 425.671 297.235 454.493 297.934 475.628L299.331 514.056L295.838 509.689C292.869 506.021 292.519 503.75 293.393 496.414C294.79 483.314 291.995 476.851 280.991 468.466L271.558 461.13L270.86 444.885C270.51 435.802 269.637 427.418 268.764 426.021C267.89 424.798 267.192 416.763 267.017 408.379L266.842 392.833L278.196 389.339C297.934 383.4 296.537 381.828 296.537 411.348ZM252.344 426.545C257.584 427.767 260.729 435.278 260.729 446.632C260.729 451.523 260.205 452.222 257.759 451.174C246.929 446.458 232.082 449.776 221.252 459.383L215.313 464.624L212.693 458.335C211.121 454.667 209.549 449.602 208.851 446.807C206.929 436.676 216.886 428.291 233.654 425.846C242.388 424.623 243.611 424.623 252.344 426.545ZM258.283 466.021C273.654 476.327 281.515 483.838 282.738 489.427C283.96 494.318 283.786 494.493 279.069 493.27C275.925 492.397 272.956 492.921 269.986 495.017C265.619 497.812 265.619 498.161 266.143 515.454C266.842 532.746 266.668 533.27 262.999 533.794C257.759 534.493 254.615 528.904 251.995 513.532C250.772 505.497 249.2 500.956 247.628 500.956C243.785 500.956 243.261 505.847 246.056 516.851C250.947 536.24 244.484 532.048 238.196 511.786C234.178 498.86 232.956 497.462 229.287 501.829C227.541 503.751 227.715 506.021 229.811 512.31C232.082 518.598 232.082 520.17 230.335 520.17C226.842 520.17 224.746 516.676 222.126 506.545C220.204 498.86 220.204 496.24 222.3 490.825C223.523 487.331 224.746 480.694 224.746 476.152C224.921 466.545 225.794 465.497 236.274 461.829C247.104 458.161 246.755 458.161 258.283 466.021ZM284.484 515.279C286.58 517.375 290.074 522.79 292.17 527.157C296.537 535.541 295.838 535.541 285.707 526.633C283.611 524.711 281.165 523.838 280.117 524.362C278.371 525.41 277.497 523.489 275.576 513.532C274.528 508.117 274.703 507.768 277.672 509.34C279.419 510.388 282.563 513.008 284.484 515.279ZM311.209 542.528C316.624 547.244 337.585 564.362 357.673 580.607C425.97 635.454 452.695 657.289 452.695 658.162C452.695 658.686 450.424 660.782 447.804 662.878L443.088 666.546L433.306 658.511C420.031 647.158 392.782 625.498 336.013 580.782C309.463 559.821 287.104 542.004 286.406 541.305C285.008 539.908 294.79 534.318 298.982 534.144C300.205 534.144 305.794 537.987 311.209 542.528ZM343.175 631.612C351.559 637.026 358.371 642.267 358.371 642.965C358.546 645.236 336.013 632.485 327.629 625.673C323.611 622.354 318.546 617.114 316.275 613.97L312.432 608.38L320.118 615.018C324.485 618.511 334.79 626.022 343.175 631.612ZM497.237 650.826C507.717 656.59 512.259 664.625 513.481 679.123C514.18 687.507 513.656 690.477 510.861 695.193C504.748 705.149 490.599 713.359 487.804 708.817C485.534 705.324 489.027 696.416 494.966 690.302C500.905 684.014 500.556 682.092 492.695 678.075C487.804 675.455 487.455 674.931 488.503 668.118C489.027 664.101 488.852 659.559 487.979 658.337C486.582 656.241 485.708 656.415 482.914 659.734C479.769 663.752 479.595 663.752 475.053 660.782C469.988 657.463 469.289 654.669 472.084 649.254C474.879 644.188 486.582 644.887 497.237 650.826ZM463.175 666.721C465.271 668.118 464.573 669.341 460.206 673.009C456.887 675.804 454.267 679.996 453.568 683.664C452.52 689.603 450.25 691.35 448.852 687.333C447.629 683.839 452.52 669.69 455.839 667.42C459.333 664.8 460.031 664.625 463.175 666.721ZM475.577 676.677C475.577 677.201 473.656 679.298 471.385 681.044C468.241 683.664 466.844 686.809 465.97 693.795C465.097 700.957 464.049 703.053 462.302 702.354C459.682 701.481 458.983 690.477 460.905 683.14C462.127 678.774 475.577 672.835 475.577 676.677ZM482.04 693.271C479.595 696.765 478.372 701.132 478.372 707.071C478.197 711.787 478.023 715.804 477.848 715.804C477.673 715.804 476.276 714.582 474.879 713.01C472.957 711.263 472.084 707.071 472.084 699.909C472.084 689.778 472.258 689.429 477.673 686.983C485.184 684.014 486.931 686.634 482.04 693.271ZM404.834 693.446C418.459 709.341 441.691 752.311 465.795 805.587L470.337 815.892L452.52 814.67C425.795 812.748 403.437 808.032 377.76 798.425C364.659 793.534 342.301 783.578 339.856 781.482C338.982 780.783 363.786 734.669 374.616 716.678C385.97 697.464 394.354 686.11 396.974 686.11C397.847 686.11 401.341 689.429 404.834 693.446ZM520.119 712.311C523.088 715.63 523.088 715.804 518.547 717.551C509.639 720.87 505.621 721.394 504.224 719.123C502.826 716.852 510.861 708.817 514.704 708.817C515.927 708.817 518.372 710.389 520.119 712.311ZM705.273 743.752C708.068 746.198 708.941 750.739 706.321 750.739C701.256 750.739 685.186 726.285 685.186 718.599C685.186 713.883 686.059 714.756 693.919 727.333C698.636 735.193 703.701 742.529 705.273 743.752ZM632.434 779.036C640.644 787.595 646.757 794.931 646.233 795.63C644.137 797.552 625.447 783.403 618.286 774.32C609.203 762.966 601.692 746.896 600.294 735.892C599.072 727.333 599.246 727.333 608.329 745.324C615.84 760.171 620.382 766.46 632.434 779.036ZM659.159 743.577C662.478 748.992 669.989 758.425 675.753 764.538C687.631 777.464 682.566 776.067 668.068 762.268C657.413 752.311 651.124 742.355 649.552 733.272C648.329 726.459 647.98 726.11 659.159 743.577ZM568.329 772.049C572.346 779.036 582.477 791.613 590.512 799.997C598.722 808.556 604.836 815.892 604.312 816.416C600.294 820.434 573.569 795.281 566.058 780.259C561.517 771.176 558.023 759.473 559.945 759.473C560.294 759.473 564.137 765.062 568.329 772.049Z" fill="#1D205D" stroke="white" stroke-width="3"/>
<path d="M841.692 626.895C836.626 632.834 835.928 637.55 839.77 640.694C841.867 642.441 843.264 641.917 847.631 637.55C853.22 631.961 854.268 627.07 850.775 623.576C847.805 620.607 846.757 620.956 841.692 626.895Z" fill="#1D205D" stroke="white" stroke-width="3"/>
<path d="M886.235 629.69C879.073 636.327 878.549 641.393 884.663 642.092C890.776 642.79 898.287 635.803 898.287 629.341C898.287 623.402 892.872 623.576 886.235 629.69Z" fill="#1D205D" stroke="white" stroke-width="3"/>
<path d="M861.258 734.494C855.843 737.988 852 744.276 853.572 747.071C857.589 753.533 879.424 741.306 876.803 734.145C875.406 730.651 867.196 730.826 861.258 734.494Z" fill="#1D205D" stroke="white" stroke-width="3"/>
<path d="M795.755 741.83C788.418 747.245 782.13 757.9 783.702 762.442C784.575 764.538 785.973 764.014 791.038 759.472C800.296 751.437 807.807 748.293 814.969 749.691C818.287 750.389 821.956 751.961 823.178 753.359C826.148 756.852 828.419 754.931 828.419 748.992C828.419 736.765 808.855 732.398 795.755 741.83Z" fill="#1D205D" stroke="white" stroke-width="3"/>
<path d="M818.81 790.913C814.618 795.28 814.268 796.153 816.714 797.202C820.906 798.774 831.212 796.503 833.657 793.533C836.801 789.691 834.356 785.673 828.766 785.673C825.622 785.673 822.129 787.42 818.81 790.913Z" fill="#1D205D" stroke="white" stroke-width="3"/>
<path d="M756.803 793.883C747.371 797.202 734.096 810.652 734.096 816.94C734.096 820.084 736.716 819.211 746.498 812.573C755.057 806.809 756.454 806.46 767.982 806.809C774.795 806.984 780.21 806.634 780.21 805.936C778.812 799.647 777.24 797.551 771.825 795.281C765.537 792.66 761.345 792.136 756.803 793.883Z" fill="#1D205D" stroke="white" stroke-width="3"/>
<path d="M686.06 837.202C677.152 841.394 665.449 853.971 668.243 856.591C668.767 857.115 673.309 855.368 678.549 852.748C686.235 848.556 689.903 847.857 700.034 848.032C706.846 848.032 714.183 848.556 716.628 848.731C723.266 849.779 722.392 843.49 715.056 838.599C708.069 833.883 694.444 833.185 686.06 837.202Z" fill="#1D205D" stroke="white" stroke-width="3"/>
<path d="M602.214 870.914C599.42 872.835 595.926 875.456 594.529 877.028C592.433 879.822 593.131 879.997 602.389 879.997C616.887 879.997 625.97 878.25 627.018 875.106C629.813 868.119 611.821 865.15 602.214 870.914Z" fill="#1D205D" stroke="white" stroke-width="3"/>
</svg>
